HIERARCHY
ROOT Hips
{
    OFFSET   0.000000   0.000000   0.000000
    CHANNELS 6 Xposition Yposition Zposition Zrotation Xrotation Yrotation
    JOINT Chest
    {
        OFFSET   0.000000   8.007230   0.000000
        CHANNELS 3 Zrotation Xrotation Yrotation
        JOINT Chest2
        {
            OFFSET   0.000000  22.077100   0.000000
            CHANNELS 3 Zrotation Xrotation Yrotation
            JOINT Neck
            {
                OFFSET   0.000000  23.254800  -0.000021
                CHANNELS 3 Zrotation Xrotation Yrotation
                JOINT Head
                {
                    OFFSET   0.000000  14.370000   1.956610
                    CHANNELS 3 Zrotation Xrotation Yrotation
                    End Site
                    {
                        OFFSET   0.000000  19.566000   0.000000
                    }
                }
            }
            JOINT LeftCollar
            {
                OFFSET   3.911900  19.017000  -0.467063
                CHANNELS 3 Zrotation Xrotation Yrotation
                JOINT LeftShoulder
                {
                    OFFSET  10.383700   0.000000   0.000000
                    CHANNELS 3 Zrotation Xrotation Yrotation
                    JOINT LeftElbow
                    {
                        OFFSET  26.662100   0.001529   0.000325
                        CHANNELS 3 Zrotation Xrotation Yrotation
                        JOINT LeftWrist
                        {
                            OFFSET  28.869000  -0.000011  -0.000096
                            CHANNELS 3 Zrotation Xrotation Yrotation
                            JOINT LeftFinger0
                            {
                                OFFSET   2.044650  -2.323460   3.252850
                                CHANNELS 3 Zrotation Xrotation Yrotation
                                JOINT LeftFinger01
                                {
                                    OFFSET   3.088130   0.000000   0.000000
                                    CHANNELS 3 Zrotation Xrotation Yrotation
                                    JOINT LeftFinger02
                                    {
                                        OFFSET   2.639460   0.000000   0.000000
                                        CHANNELS 3 Zrotation Xrotation Yrotation
                                        End Site
                                        {
                                            OFFSET   2.582190   0.000000   0.000000
                                        }
                                    }
                                }
                            }
                            JOINT LeftFinger1
                            {
                                OFFSET   8.364480   0.000000   3.252850
                                CHANNELS 3 Zrotation Xrotation Yrotation
                                JOINT LeftFinger11
                                {
                                    OFFSET   4.646930   0.000000   0.000000
                                    CHANNELS 3 Zrotation Xrotation Yrotation
                                    JOINT LeftFinger12
                                    {
                                        OFFSET   2.323460   0.000000   0.000000
                                        CHANNELS 3 Zrotation Xrotation Yrotation
                                        End Site
                                        {
                                            OFFSET   2.273050   0.000000   0.000000
                                        }
                                    }
                                }
                            }
                            JOINT LeftFinger2
                            {
                                OFFSET   8.364480   0.000016   1.078090
                                CHANNELS 3 Zrotation Xrotation Yrotation
                                JOINT LeftFinger21
                                {
                                    OFFSET   5.111620   0.000000   0.000000
                                    CHANNELS 3 Zrotation Xrotation Yrotation
                                    JOINT LeftFinger22
                                    {
                                        OFFSET   2.788160   0.000017   0.000000
                                        CHANNELS 3 Zrotation Xrotation Yrotation
                                        End Site
                                        {
                                            OFFSET   2.727660   0.000000   0.000000
                                        }
                                    }
                                }
                            }
                            JOINT LeftFinger3
                            {
                                OFFSET   7.899780   0.000015  -1.078090
                                CHANNELS 3 Zrotation Xrotation Yrotation
                                JOINT LeftFinger31
                                {
                                    OFFSET   4.646920   0.000000   0.000000
                                    CHANNELS 3 Zrotation Xrotation Yrotation
                                    JOINT LeftFinger32
                                    {
                                        OFFSET   2.323470   0.000000   0.000000
                                        CHANNELS 3 Zrotation Xrotation Yrotation
                                        End Site
                                        {
                                            OFFSET   2.273050   0.000000   0.000000
                                        }
                                    }
                                }
                            }
                            JOINT LeftFinger4
                            {
                                OFFSET   7.435090   0.000000  -3.252850
                                CHANNELS 3 Zrotation Xrotation Yrotation
                                JOINT LeftFinger41
                                {
                                    OFFSET   3.717550   0.000000   0.000000
                                    CHANNELS 3 Zrotation Xrotation Yrotation
                                    JOINT LeftFinger42
                                    {
                                        OFFSET   1.858760   0.000000   0.000000
                                        CHANNELS 3 Zrotation Xrotation Yrotation
                                        End Site
                                        {
                                            OFFSET   1.818440   0.000000   0.000000
                                        }
                                    }
                                }
                            }
                        }
                    }
                }
            }
            JOINT RightCollar
            {
                OFFSET  -3.911900  19.017000  -0.467062
                CHANNELS 3 Zrotation Xrotation Yrotation
                JOINT RightShoulder
                {
                    OFFSET -10.383700   0.000015   0.000000
                    CHANNELS 3 Zrotation Xrotation Yrotation
                    JOINT RightElbow
                    {
                        OFFSET -26.662100   0.001341   0.000385
                        CHANNELS 3 Zrotation Xrotation Yrotation
                        JOINT RightWrist
                        {
                            OFFSET -28.869000   0.000025  -0.000080
                            CHANNELS 3 Zrotation Xrotation Yrotation
                            JOINT RightFinger0
                            {
                                OFFSET  -2.044650  -2.323490   3.252850
                                CHANNELS 3 Zrotation Xrotation Yrotation
                                JOINT RightFinger01
                                {
                                    OFFSET  -3.088130   0.000000   0.000000
                                    CHANNELS 3 Zrotation Xrotation Yrotation
                                    JOINT RightFinger02
                                    {
                                        OFFSET  -2.639460   0.000000   0.000000
                                        CHANNELS 3 Zrotation Xrotation Yrotation
                                        End Site
                                        {
                                            OFFSET  -2.582190   0.000000   0.000000
                                        }
                                    }
                                }
                            }
                            JOINT RightFinger1
                            {
                                OFFSET  -8.364480   0.000000   3.252850
                                CHANNELS 3 Zrotation Xrotation Yrotation
                                JOINT RightFinger11
                                {
                                    OFFSET  -4.646930   0.000000   0.000000
                                    CHANNELS 3 Zrotation Xrotation Yrotation
                                    JOINT RightFinger12
                                    {
                                        OFFSET  -2.323470   0.000000   0.000000
                                        CHANNELS 3 Zrotation Xrotation Yrotation
                                        End Site
                                        {
                                            OFFSET  -2.273050   0.000000   0.000000
                                        }
                                    }
                                }
                            }
                            JOINT RightFinger2
                            {
                                OFFSET  -8.364480   0.000000   1.078090
                                CHANNELS 3 Zrotation Xrotation Yrotation
                                JOINT RightFinger21
                                {
                                    OFFSET  -5.111610   0.000000   0.000000
                                    CHANNELS 3 Zrotation Xrotation Yrotation
                                    JOINT RightFinger22
                                    {
                                        OFFSET  -2.788160   0.000000   0.000000
                                        CHANNELS 3 Zrotation Xrotation Yrotation
                                        End Site
                                        {
                                            OFFSET  -2.727660   0.000000   0.000000
                                        }
                                    }
                                }
                            }
                            JOINT RightFinger3
                            {
                                OFFSET  -7.899780   0.000000  -1.078090
                                CHANNELS 3 Zrotation Xrotation Yrotation
                                JOINT RightFinger31
                                {
                                    OFFSET  -4.646920   0.000000   0.000000
                                    CHANNELS 3 Zrotation Xrotation Yrotation
                                    JOINT RightFinger32
                                    {
                                        OFFSET  -2.323470   0.000000   0.000000
                                        CHANNELS 3 Zrotation Xrotation Yrotation
                                        End Site
                                        {
                                            OFFSET  -2.273050   0.000000   0.000000
                                        }
                                    }
                                }
                            }
                            JOINT RightFinger4
                            {
                                OFFSET  -7.435090   0.000000  -3.252850
                                CHANNELS 3 Zrotation Xrotation Yrotation
                                JOINT RightFinger41
                                {
                                    OFFSET  -3.717550   0.000000   0.000000
                                    CHANNELS 3 Zrotation Xrotation Yrotation
                                    JOINT RightFinger42
                                    {
                                        OFFSET  -1.858770   0.000000   0.000000
                                        CHANNELS 3 Zrotation Xrotation Yrotation
                                        End Site
                                        {
                                            OFFSET  -1.818440   0.000000   0.000000
                                        }
                                    }
                                }
                            }
                        }
                    }
                }
            }
        }
    }
    JOINT LeftHip
    {
        OFFSET   9.783010   0.000000   0.000000
        CHANNELS 3 Zrotation Xrotation Yrotation
        JOINT LeftKnee
        {
            OFFSET   0.000070 -41.789100   0.000028
            CHANNELS 3 Zrotation Xrotation Yrotation
            JOINT LeftAnkle
            {
                OFFSET   0.000087 -41.133200  -0.000100
                CHANNELS 3 Zrotation Xrotation Yrotation
                JOINT LeftToe
                {
                    OFFSET   0.000000  -6.358960  14.674500
                    CHANNELS 3 Zrotation Xrotation Yrotation
                    End Site
                    {
                        OFFSET   0.000000   0.000000   3.913200
                    }
                }
            }
        }
    }
    JOINT RightHip
    {
        OFFSET  -9.783020   0.000000   0.000000
        CHANNELS 3 Zrotation Xrotation Yrotation
        JOINT RightKnee
        {
            OFFSET   0.000044 -41.789100  -0.000870
            CHANNELS 3 Zrotation Xrotation Yrotation
            JOINT RightAnkle
            {
                OFFSET  -0.000090 -41.133200  -0.000245
                CHANNELS 3 Zrotation Xrotation Yrotation
                JOINT RightToe
                {
                    OFFSET   0.000000  -6.358960  14.674500
                    CHANNELS 3 Zrotation Xrotation Yrotation
                    End Site
                    {
                        OFFSET   0.000000   0.000000   3.913200
                    }
                }
            }
        }
    }
}
MOTION
Frames: 4
Frame Time:   0.016667
 -0.625680  89.558600  -2.539980  -1.182870  -0.828360   2.261560   0.719121   0.889147   0.193660   1.435490   1.780640   0.376205  -0.655251   1.574300   0.012917  -1.078440   3.191960   1.123280  -1.226340   1.819090   6.064300 -80.756800   0.709725   5.646550  -0.674401  -0.298977 -13.890600   9.121770  -3.808110  -4.241730  40.784800  28.382900 -50.177500 -26.556700   0.000000   0.000105  -8.278370  -0.001448  -0.001121 -29.553200  -0.167550   0.295468 -24.180200  -0.002876  -0.007086 -16.926200   0.001456  -0.005333 -28.429100  -3.957450   7.252010 -38.780000  -0.009078  -0.002620 -25.827500   0.001948  -0.002296 -27.455200  -4.673380   8.912020 -30.895400   0.004787   0.001049 -20.576300  -0.003331   0.000852 -29.965600  -6.614040  11.297400 -45.930700  -0.000536  -0.000000 -30.589900   0.001430  -0.000110   5.330780   4.141530   3.766040  74.153200 -13.646300  -3.942720   4.122520  -7.508300  11.579400 -21.707600   3.366590  -2.148790 -43.473500  36.847500  75.449600  25.197500   0.006643  -0.006243   7.605840   0.002392  -0.002925  23.446900   0.946326   2.180810  19.198600   0.003179  -0.003883  13.439000   0.002854  -0.003154  23.184600  -0.514650  -1.201450  23.190000   0.009530  -0.002936  15.444500   0.000970  -0.002659  22.467400  -1.320600  -3.189730  22.504200   0.000931  -0.001199  14.987800   0.000426  -0.002397  29.063200  -1.678470  -3.016940  43.661200   0.008539   0.001025  29.078400   0.000070  -0.008216   2.955480   1.496080  -2.609800   0.376613   1.289700  12.196500  -2.298610  -2.237260  -2.202880   0.000000   0.000000   0.000000   0.428039   2.017660  -6.482500   0.206264   2.014880 -13.724200   0.600428  -3.406800  -1.324980   0.000000   0.000000   0.000000
 -0.633776  89.558600  -2.550810  -1.182700  -0.832206   2.261860   0.719036   0.901274   0.196944   1.435270   1.804940   0.382623  -0.668923   1.584490   0.012953  -1.101300   3.212280   1.192260  -1.234260   1.812840   6.074160 -80.751900   0.745417   5.596130  -0.683494  -0.291146 -13.898800   9.107740  -3.796700  -4.251740  40.796400  28.405900 -50.096800 -26.562700   0.000000   0.000094  -8.281370  -0.001444  -0.001121 -29.534400  -0.197511   0.348717 -24.165000  -0.002883  -0.007096 -16.915600   0.001455  -0.005340 -28.428700  -3.957470   7.257630 -38.721600  -0.009077  -0.002615 -25.788600   0.001952  -0.002293 -27.441900  -4.701110   8.969410 -30.840000   0.004798   0.001056 -20.539400  -0.003335   0.000860 -29.922800  -6.635260  11.351900 -45.874500  -0.000541   0.000000 -30.552400   0.001438  -0.000109   5.324600   4.129140   3.763940  74.158900 -13.604600  -3.931640   4.122870  -7.508150  11.585000 -21.697800   3.338980  -2.135610 -43.442200  36.822500  75.435700  25.204600   0.006650  -0.006225   7.605840   0.002392  -0.002925  23.460400   0.950322   2.188570  19.209700   0.003180  -0.003887  13.446800   0.002850  -0.003157  23.198200  -0.511268  -1.192930  23.203300   0.009528  -0.002921  15.453400   0.000964  -0.002661  22.480300  -1.317380  -3.180010  22.516900   0.000924  -0.001196  14.996200   0.000421  -0.002393  29.076700  -1.674100  -3.007680  43.680300   0.008533   0.001045  29.091100   0.000071  -0.008212   2.962260   1.498320  -2.609930   0.378096   1.281970  12.201600  -2.303630  -2.225550  -2.207870  -0.000000   0.000000   0.000000   0.430532   2.037900  -6.480160   0.211860   1.988090 -13.724100   0.589403  -3.401880  -1.326420  -0.000000   0.000000  -0.000000
 -0.647265  89.558600  -2.568450  -1.182190  -0.843634   2.263990   0.718892   0.924068   0.201453   1.434830   1.850600   0.391364  -0.689683   1.601370   0.013016  -1.135680   3.245970   1.315250  -1.248450   1.803850   6.089230 -80.748400   0.802985   5.509340  -0.693683  -0.262673 -13.928500   9.087940  -3.785260  -4.267890  40.801000  28.422200 -50.011800 -26.568800   0.000000   0.000082  -8.284380  -0.001440  -0.001123 -29.515600  -0.227471   0.401967 -24.149800  -0.002903  -0.007120 -16.904900   0.001452  -0.005360 -28.428100  -3.957550   7.263250 -38.663300  -0.009074  -0.002601 -25.749700   0.001962  -0.002283 -27.426600  -4.728820   9.026800 -30.784700   0.004822   0.001079 -20.502600  -0.003344   0.000881 -29.880000  -6.656470  11.406400 -45.818300  -0.000552   0.000000 -30.515000   0.001447  -0.000104   5.313470   4.105310   3.756070  74.172700 -13.523100  -3.906090   4.122020  -7.507780  11.598700 -21.673400   3.287690  -2.099230 -43.411000  36.797600  75.421900  25.211700   0.006664  -0.006181   7.605830   0.002393  -0.002926  23.478800   0.959811   2.208410  19.225100   0.003184  -0.003897  13.457500   0.002839  -0.003161  23.213000  -0.500057  -1.165960  23.218100   0.009524  -0.002884  15.463300   0.000953  -0.002665  22.499000  -1.307970  -3.154500  22.535000   0.000911  -0.001183  15.008300   0.000409  -0.002380  29.091100  -1.661670  -2.983490  43.701600   0.008517   0.001094  29.105300   0.000072  -0.008197   2.974200   1.506820  -2.610130   0.380210   1.269060  12.209700  -2.311760  -2.207120  -2.218020  -0.000000   0.000000  -0.000000   0.435598   2.066960  -6.475280   0.217456   1.961290 -13.724000   0.569598  -3.395260  -1.336560  -0.000000   0.000000   0.000000
 -0.657920  89.558500  -2.581680  -1.181240  -0.863359   2.272540   0.718728   0.948106   0.202948   1.434390   1.898690   0.394233  -0.702214   1.614430   0.013079  -1.156020   3.272040   1.430370  -1.262500   1.800860   6.097990 -80.751500   0.845436   5.431850  -0.691326  -0.210492 -13.981700   9.078970  -3.796170  -4.280270  40.794500  28.400100 -50.021900 -26.553400   0.000053   0.000112  -8.276720  -0.001472  -0.001140 -29.523100  -0.215221   0.380396 -24.155800  -0.002937  -0.007156 -16.909100   0.001447  -0.005388 -28.428000  -3.957740   7.261740 -38.679000  -0.009069  -0.002579 -25.760200   0.001977  -0.002263 -27.428800  -4.713940   8.997740 -30.788600   0.004854   0.001118 -20.505200  -0.003357   0.000913 -29.886100  -6.641990  11.379600 -45.823300  -0.000562  -0.000035 -30.518300   0.001445  -0.000049   5.303180   4.080780   3.742110  74.201900 -13.430800  -3.870590   4.104040  -7.505050  11.613500 -21.633200   3.220520  -2.040360 -43.446700  36.840100  75.483400  25.197800   0.006686  -0.006113   7.598880   0.002377  -0.002931  23.485700   0.972489   2.236710  19.231000   0.003192  -0.003911  13.461600   0.002818  -0.003162  23.214900  -0.479013  -1.116650  23.219900   0.009517  -0.002829  15.464500   0.000940  -0.002669  22.508300  -1.292580  -3.116020  22.543800   0.000895  -0.001156  15.014300   0.000391  -0.002357  29.093100  -1.641750  -2.947180  43.704300   0.008495   0.001169  29.107100   0.000070  -0.008167   2.985320   1.523870  -2.610340   0.379134   1.258260  12.216000  -2.317770  -2.194610  -2.230620   0.000000   0.000000   0.000000   0.442787   2.081950  -6.469810   0.218240   1.965450 -13.720500   0.551042  -3.393690  -1.361810   0.000000   0.000000  -0.000000
